<?xml version="1.0" standalone="no"?>
<!DOCTYPE svg PUBLIC "-//W3C//DTD SVG 20010904//EN"
 "http://www.w3.org/TR/2001/REC-SVG-20010904/DTD/svg10.dtd">
<svg version="1.0" xmlns="http://www.w3.org/2000/svg"
 width="64.000000pt" height="64.000000pt" viewBox="0 0 64.000000 64.000000"
 preserveAspectRatio="xMidYMid meet">

<g transform="translate(0.000000,64.000000) scale(0.100000,-0.100000)"
fill="red" stroke="none">
<path d="M46 594 c-24 -23 -24 -525 0 -548 12 -13 41 -16 154 -16 162 0 170 4
170 81 0 46 1 49 26 49 16 0 36 -11 50 -25 29 -31 59 -32 87 -1 12 13 34 26
47 28 23 3 25 7 25 62 l0 59 -49 17 c-43 14 -52 22 -67 58 -18 41 -19 42 -69
42 l-50 0 0 89 c0 123 3 121 -170 121 -113 0 -142 -3 -154 -16z m87 -24 c4
-17 14 -20 67 -20 54 0 63 3 67 21 5 16 12 19 42 17 l36 -3 3 -237 2 -238
-150 0 -150 0 0 233 c0 129 3 237 7 240 3 4 21 7 39 7 23 0 33 -5 37 -20z
m117 10 c0 -5 -22 -10 -50 -10 -27 0 -50 5 -50 10 0 6 23 10 50 10 28 0 50 -4
50 -10z m140 -240 l0 -40 53 0 c29 0 74 -7 100 -16 46 -16 47 -16 47 -60 0
-52 -19 -59 -56 -19 -13 14 -32 25 -44 25 -12 0 -31 -11 -44 -25 -14 -14 -34
-25 -50 -25 l-26 0 0 100 c0 60 4 100 10 100 6 0 10 -18 10 -40z m78 15 c16
-35 16 -35 -23 -35 -32 0 -35 2 -35 30 0 25 4 30 23 30 16 0 28 -9 35 -25z
m52 -160 c15 -18 10 -45 -12 -59 -35 -22 -74 27 -48 59 16 19 44 19 60 0z
m-172 -122 c-3 -16 -18 -18 -148 -18 -130 0 -145 2 -148 18 -3 16 9 17 148 17
139 0 151 -1 148 -17z"/>
<path d="M139 421 c-37 -38 -37 -71 0 -136 41 -71 56 -83 81 -60 35 32 73 120
65 154 -15 70 -95 92 -146 42z m108 -17 c20 -20 24 -31 19 -57 -7 -36 -51
-107 -66 -107 -15 0 -59 71 -66 105 -4 22 0 38 16 58 27 34 63 35 97 1z"/>
<path d="M166 394 c-31 -30 -9 -84 34 -84 24 0 50 26 50 50 0 24 -26 50 -50
50 -10 0 -26 -7 -34 -16z m59 -34 c0 -18 -6 -26 -23 -28 -13 -2 -25 3 -28 12
-10 26 4 48 28 44 17 -2 23 -10 23 -28z"/>
<path d="M390 270 c0 -5 14 -10 30 -10 17 0 30 5 30 10 0 6 -13 10 -30 10 -16
0 -30 -4 -30 -10z"/>
<path d="M474 179 c-10 -17 13 -36 27 -22 12 12 4 33 -11 33 -5 0 -12 -5 -16
-11z"/>
</g>
</svg>
