<svg width="20" height="24" viewBox="0 0 20 24" fill="none" xmlns="http://www.w3.org/2000/svg">
<g clip-path="url(#clip0_1_47)">
<path d="M15.907 18.028H3.04C2.21519 18.0471 1.43172 18.3929 0.861701 18.9894C0.291686 19.5858 -0.0182448 20.3842 -8.00297e-07 21.209V23.33H19.088V21.209C19.0746 20.3695 18.7352 19.5682 18.1415 18.9745C17.5478 18.3808 16.7465 18.0414 15.907 18.028V18.028ZM9.544 0C7.86602 0 6.22573 0.497578 4.83054 1.42981C3.43535 2.36205 2.34794 3.68707 1.70581 5.23731C1.06367 6.78756 0.89566 8.49341 1.22302 10.1391C1.55037 11.7849 2.3584 13.2966 3.54491 14.4831C4.73141 15.6696 6.24312 16.4776 7.88885 16.805C9.53459 17.1323 11.2404 16.9643 12.7907 16.3222C14.3409 15.6801 15.666 14.5926 16.5982 13.1975C17.5304 11.8023 18.028 10.162 18.028 8.484C18.028 6.2339 17.1342 4.07596 15.5431 2.48491C13.952 0.893847 11.7941 0 9.544 0V0ZM8.484 12.725L4.772 9.014L6.363 7.423L8.484 9.544L12.725 5.3L14.316 6.891L8.484 12.725Z" fill="#491C61"/>
</g>
<defs>
<clipPath id="clip0_1_47">
<rect width="19.088" height="23.33" fill="white"/>
</clipPath>
</defs>
</svg>
