<svg width="21" height="24" viewBox="0 0 21 24" fill="none" xmlns="http://www.w3.org/2000/svg">
<g clip-path="url(#clip0_1_6)">
<path fill-rule="evenodd" clip-rule="evenodd" d="M12.99 4.66601C12.8572 4.6615 12.7286 4.61797 12.6204 4.54089C12.5121 4.46381 12.4289 4.35657 12.3812 4.23254C12.3334 4.10851 12.3233 3.97315 12.3519 3.84338C12.3806 3.71361 12.4468 3.59514 12.5424 3.50274C12.6379 3.41035 12.7585 3.3481 12.8892 3.32379C13.0198 3.29948 13.1547 3.31418 13.2771 3.36602C13.3995 3.41787 13.5039 3.50457 13.5773 3.61535C13.6507 3.72613 13.6899 3.85611 13.69 3.98901C13.6888 4.07953 13.6698 4.1689 13.6339 4.25201C13.598 4.33512 13.546 4.41033 13.481 4.47326C13.4159 4.5362 13.339 4.58563 13.2548 4.61871C13.1705 4.65179 13.0805 4.66787 12.99 4.66601V4.66601ZM7.423 4.66601C7.29018 4.6615 7.16161 4.61797 7.05334 4.54089C6.94508 4.46381 6.86191 4.35657 6.81418 4.23254C6.76645 4.10851 6.75628 3.97315 6.78494 3.84338C6.8136 3.71361 6.87981 3.59514 6.97534 3.50274C7.07087 3.41035 7.19148 3.3481 7.32214 3.32379C7.4528 3.29948 7.58774 3.31418 7.71011 3.36602C7.83248 3.41787 7.93689 3.50457 8.01031 3.61535C8.08374 3.72613 8.12291 3.85611 8.12299 3.98901C8.12182 4.07953 8.10277 4.1689 8.06689 4.25201C8.03102 4.33512 7.97904 4.41033 7.91397 4.47326C7.8489 4.5362 7.77201 4.58563 7.68774 4.61871C7.60348 4.65179 7.51351 4.66787 7.423 4.66601V4.66601ZM13.401 1.953L13.661 1.57098L13.921 1.195L14.499 0.349972C14.516 0.325373 14.5278 0.297596 14.5337 0.268307C14.5396 0.239018 14.5395 0.20888 14.5334 0.179623C14.5274 0.150365 14.5154 0.122589 14.4984 0.0980796C14.4813 0.0735702 14.4593 0.0527937 14.434 0.0369834C14.383 0.00352532 14.321 -0.00860831 14.2611 0.00316995C14.2013 0.0149482 14.1485 0.049688 14.114 0.0999717L13.232 1.38501L12.967 1.77197C11.1859 1.11338 9.22806 1.11338 7.44699 1.77197L7.18399 1.38501L6.923 1.005L6.30301 0.0999717C6.26765 0.0498911 6.21432 0.0153947 6.15414 0.00365823C6.09397 -0.00807824 6.0316 0.00386227 5.98001 0.0369834C5.95501 0.0529861 5.93344 0.0738213 5.9166 0.0982627C5.89975 0.122704 5.88795 0.150258 5.8819 0.179317C5.87584 0.208377 5.87567 0.238379 5.88135 0.267513C5.88703 0.296647 5.89848 0.32434 5.91501 0.348995L6.49301 1.19397L6.75201 1.57L7.013 1.95202C6.08519 2.30628 5.27983 2.92164 4.69421 3.72375C4.1086 4.52586 3.76782 5.48036 3.71301 6.47198H16.7C16.6451 5.48039 16.3042 4.5259 15.7186 3.72381C15.133 2.92172 14.3277 2.30638 13.4 1.95202L13.401 1.953ZM3.811 7.375H3.711V17.309C3.71653 17.6936 3.87443 18.0603 4.15002 18.3285C4.42562 18.5968 4.79641 18.7448 5.181 18.74H6.241C6.20362 18.8618 6.18474 18.9886 6.185 19.116V21.976C6.19472 22.3389 6.34569 22.6836 6.60577 22.9368C6.86586 23.19 7.21453 23.3317 7.57751 23.3317C7.9405 23.3317 8.28914 23.19 8.54922 22.9368C8.80931 22.6836 8.96028 22.3389 8.97 21.976V19.116C8.96945 18.9887 8.95059 18.862 8.914 18.74H11.5C11.4636 18.862 11.4451 18.9887 11.445 19.116V21.976C11.4547 22.3389 11.6057 22.6836 11.8658 22.9368C12.1259 23.19 12.4745 23.3317 12.8375 23.3317C13.2005 23.3317 13.5491 23.19 13.8092 22.9368C14.0693 22.6836 14.2203 22.3389 14.23 21.976V19.116C14.2295 18.9885 14.21 18.8617 14.172 18.74H15.233C15.6174 18.7448 15.988 18.5968 16.2632 18.3284C16.5385 18.0601 16.696 17.6934 16.701 17.309V7.375H3.81201H3.811ZM1.39099 7.375C1.02701 7.37019 0.676033 7.51013 0.415192 7.76403C0.15435 8.01794 0.00500558 8.36502 0 8.729V14.529C0 14.8982 0.146664 15.2523 0.407715 15.5133C0.668765 15.7744 1.02282 15.921 1.392 15.921C1.76118 15.921 2.11523 15.7744 2.37628 15.5133C2.63733 15.2523 2.784 14.8982 2.784 14.529V8.729C2.77873 8.36502 2.62913 8.01806 2.3681 7.76434C2.10707 7.51062 1.75598 7.3709 1.392 7.37597L1.39099 7.375ZM19.021 7.375C18.8406 7.37235 18.6615 7.40529 18.4938 7.47192C18.3261 7.53855 18.1733 7.63755 18.0439 7.7633C17.9145 7.88905 17.8112 8.03907 17.7398 8.20477C17.6685 8.37047 17.6305 8.5486 17.628 8.729V14.529C17.628 14.8982 17.7747 15.2523 18.0357 15.5133C18.2968 15.7744 18.6508 15.921 19.02 15.921C19.3892 15.921 19.7433 15.7744 20.0043 15.5133C20.2654 15.2523 20.412 14.8982 20.412 14.529V8.729C20.4067 8.36555 20.2575 8.01901 19.9972 7.76538C19.7368 7.51175 19.3865 7.3717 19.023 7.37597L19.021 7.375Z" fill="#491C61"/>
</g>
<defs>
<clipPath id="clip0_1_6">
<rect width="20.414" height="23.33" fill="white"/>
</clipPath>
</defs>
</svg>
