<svg width="20" height="24" viewBox="0 0 20 24" fill="none" xmlns="http://www.w3.org/2000/svg">
<g clip-path="url(#clip0_1_2)">
<path d="M10.203 5.838H10.303C11.5269 5.58591 12.6242 4.91364 13.4045 3.93764C14.1849 2.96164 14.5994 1.74341 14.576 0.493999C14.5756 0.420987 14.5588 0.349 14.5268 0.283386C14.4947 0.217773 14.4483 0.160219 14.391 0.114999C14.3367 0.0681904 14.2725 0.034255 14.2032 0.0157271C14.134 -0.00280076 14.0614 -0.00544243 13.991 0.00799935C12.7652 0.26019 11.6664 0.93385 10.8856 1.91194C10.1048 2.89003 9.69133 4.11074 9.717 5.362C9.717 5.49089 9.7682 5.61451 9.85935 5.70565C9.95049 5.7968 10.0741 5.848 10.203 5.848V5.838Z" fill="#491C61"/>
<path d="M19.114 16.07C18.3435 15.7543 17.6849 15.2157 17.2227 14.5231C16.7606 13.8305 16.5158 13.0156 16.52 12.183C16.5193 11.4257 16.7171 10.6814 17.0936 10.0243C17.4702 9.36727 18.0123 8.82032 18.666 8.438C18.7291 8.40176 18.7833 8.35182 18.8245 8.29186C18.8657 8.2319 18.8929 8.16345 18.9041 8.09156C18.9154 8.01967 18.9103 7.94618 18.8894 7.8765C18.8684 7.80683 18.832 7.74275 18.783 7.689C18.2438 7.11149 17.5928 6.64962 16.8696 6.33142C16.1464 6.01323 15.3661 5.84535 14.576 5.838C13.7921 5.85478 13.0193 6.02641 12.302 6.343C11.6401 6.63702 10.9261 6.79547 10.202 6.809C9.4779 6.79547 8.76385 6.63702 8.102 6.343C7.38532 6.02667 6.6132 5.85505 5.83 5.838C5.238 5.838 0 6.032 0 12.638C0 18.038 3.693 23.327 5.83 23.327C6.77126 23.3378 7.70345 23.1422 8.561 22.754C9.07343 22.5048 9.63336 22.3684 10.203 22.354C10.7726 22.3684 11.3326 22.5048 11.845 22.754C12.7025 23.1422 13.6347 23.3378 14.576 23.327C16.315 23.327 18.366 19.897 19.435 16.68C19.4545 16.6187 19.4616 16.5542 19.456 16.4902C19.4504 16.4262 19.4321 16.3639 19.4022 16.307C19.3724 16.2501 19.3315 16.1997 19.2821 16.1586C19.2326 16.1176 19.1755 16.0868 19.114 16.068V16.07Z" fill="#491C61"/>
</g>
<defs>
<clipPath id="clip0_1_2">
<rect width="19.457" height="23.33" fill="white"/>
</clipPath>
</defs>
</svg>
