<?xml version="1.0" standalone="no"?>
<!DOCTYPE svg PUBLIC "-//W3C//DTD SVG 20010904//EN"
 "http://www.w3.org/TR/2001/REC-SVG-20010904/DTD/svg10.dtd">
<svg version="1.0" xmlns="http://www.w3.org/2000/svg"
 width="27.000000pt" height="50.000000pt" viewBox="0 0 27.000000 50.000000"
 preserveAspectRatio="xMidYMid meet">

<g transform="translate(0.000000,50.000000) scale(0.100000,-0.100000)"
fill="#491C61" stroke="none">
<path d="M120 461 c0 -32 -4 -41 -22 -46 -42 -13 -68 -46 -68 -85 0 -51 20
-73 94 -104 48 -21 66 -33 66 -47 0 -28 -46 -35 -100 -16 -44 17 -45 16 -63
-5 -18 -22 -18 -23 3 -40 12 -9 37 -20 56 -24 33 -6 34 -8 34 -50 0 -40 2 -44
25 -44 23 0 25 4 25 45 0 39 3 45 25 51 55 14 83 93 50 141 -8 11 -44 33 -80
48 -54 23 -65 32 -63 49 4 27 46 33 86 12 28 -14 31 -14 52 9 l22 24 -33 20
c-19 12 -40 21 -46 21 -8 0 -13 15 -13 40 0 36 -2 40 -25 40 -22 0 -25 -4 -25
-39z"/>
</g>
</svg>
