<?xml version="1.0" standalone="no"?>
<!DOCTYPE svg PUBLIC "-//W3C//DTD SVG 20010904//EN"
 "http://www.w3.org/TR/2001/REC-SVG-20010904/DTD/svg10.dtd">
<svg version="1.0" xmlns="http://www.w3.org/2000/svg"
 width="31.000000pt" height="31.000000pt" viewBox="0 0 31.000000 31.000000"
 preserveAspectRatio="xMidYMid meet">

<g transform="translate(0.000000,31.000000) scale(0.100000,-0.100000)"
fill="#491C61" stroke="none">
<path d="M69 226 c-17 -36 -3 -75 45 -123 35 -34 50 -43 78 -43 43 0 67 23 51
48 -7 11 -24 17 -50 17 -55 0 -75 19 -67 61 11 57 -35 89 -57 40z"/>
<path d="M190 232 c19 -9 40 -27 46 -40 18 -36 25 -38 13 -3 -11 30 -53 62
-81 61 -7 -1 3 -9 22 -18z"/>
<path d="M193 188 c12 -13 24 -19 25 -15 5 11 -18 37 -34 37 -9 0 -5 -8 9 -22z"/>
</g>
</svg>
