<?xml version="1.0" standalone="no"?>
<!DOCTYPE svg PUBLIC "-//W3C//DTD SVG 20010904//EN"
 "http://www.w3.org/TR/2001/REC-SVG-20010904/DTD/svg10.dtd">
<svg version="1.0" xmlns="http://www.w3.org/2000/svg"
 width="19.000000pt" height="25.000000pt" viewBox="0 0 19.000000 25.000000"
 preserveAspectRatio="xMidYMid meet">

<g transform="translate(0.000000,25.000000) scale(0.100000,-0.100000)"
fill="#491C61" stroke="none">
<path d="M22 220 c-27 -25 -27 -32 -3 -54 62 -57 209 -4 151 54 -28 28 -117
28 -148 0z"/>
<path d="M0 137 c0 -25 40 -50 87 -54 39 -4 53 -1 76 17 15 12 27 28 27 36 0
16 -16 19 -25 5 -11 -20 -92 -24 -126 -7 -39 19 -39 19 -39 3z"/>
<path d="M0 76 c0 -55 127 -78 174 -30 9 8 16 22 16 29 0 12 -6 12 -35 -1 -19
-7 -46 -14 -60 -14 -14 0 -41 7 -60 14 -27 12 -35 12 -35 2z"/>
</g>
</svg>
