<svg width="17" height="24" viewBox="0 0 17 24" fill="none" xmlns="http://www.w3.org/2000/svg">
<g clip-path="url(#clip0_1_27)">
<path d="M11.665 9.165C10.5605 9.16473 9.50122 8.72584 8.72019 7.94481C7.93916 7.16378 7.50027 6.10455 7.5 5V0.95C7.49976 0.623773 7.56469 0.300785 7.691 0H2.5C1.83753 0.00184718 1.20271 0.265833 0.734273 0.734274C0.265832 1.20271 0.00184718 1.83753 0 2.5V20.83C0.00184718 21.4925 0.265832 22.1273 0.734273 22.5957C1.20271 23.0642 1.83753 23.3282 2.5 23.33H14.164C14.8265 23.3282 15.4613 23.0642 15.9297 22.5957C16.3982 22.1273 16.6622 21.4925 16.664 20.83V9.015C16.3979 9.11588 16.1155 9.16673 15.831 9.165H11.665ZM7.255 17.741C7.3334 17.8181 7.39575 17.91 7.43846 18.0113C7.48117 18.1127 7.50339 18.2215 7.50384 18.3314C7.50429 18.4414 7.48297 18.5504 7.44109 18.652C7.39922 18.7537 7.33763 18.8461 7.25987 18.9239C7.18211 19.0016 7.08972 19.0632 6.98804 19.1051C6.88636 19.147 6.77739 19.1683 6.66742 19.1678C6.55745 19.1674 6.44866 19.1452 6.34733 19.1025C6.24599 19.0597 6.15412 18.9974 6.077 18.919L4.41 17.253C4.25379 17.0968 4.16604 16.8849 4.16604 16.664C4.16604 16.4431 4.25379 16.2312 4.41 16.075L6.076 14.409C6.15312 14.3306 6.24499 14.2683 6.34633 14.2255C6.44766 14.1828 6.55645 14.1606 6.66642 14.1602C6.77639 14.1597 6.88536 14.181 6.98704 14.2229C7.08872 14.2648 7.18111 14.3264 7.25887 14.4041C7.33663 14.4819 7.39822 14.5743 7.44009 14.676C7.48197 14.7776 7.50329 14.8866 7.50284 14.9966C7.50239 15.1065 7.48017 15.2153 7.43746 15.3167C7.39475 15.418 7.3324 15.5099 7.254 15.587L6.177 16.664L7.255 17.741ZM12.255 17.253L10.588 18.92C10.5109 18.9984 10.419 19.0607 10.3177 19.1035C10.2163 19.1462 10.1075 19.1684 9.99758 19.1688C9.88761 19.1693 9.77864 19.148 9.67696 19.1061C9.57528 19.0642 9.48289 19.0026 9.40513 18.9249C9.32737 18.8471 9.26578 18.7547 9.22391 18.653C9.18203 18.5514 9.16071 18.4424 9.16116 18.3324C9.16161 18.2225 9.18383 18.1137 9.22654 18.0123C9.26925 17.911 9.3316 17.8191 9.41 17.742L10.487 16.665L9.41 15.588C9.3316 15.5109 9.26925 15.419 9.22654 15.3177C9.18383 15.2163 9.16161 15.1075 9.16116 14.9976C9.16071 14.8876 9.18203 14.7786 9.22391 14.677C9.26578 14.5753 9.32737 14.4829 9.40513 14.4051C9.48289 14.3274 9.57528 14.2658 9.67696 14.2239C9.77864 14.182 9.88761 14.1607 9.99758 14.1612C10.1075 14.1616 10.2163 14.1838 10.3177 14.2265C10.419 14.2693 10.5109 14.3316 10.588 14.41L12.254 16.076C12.4102 16.2322 12.498 16.4441 12.498 16.665C12.498 16.8859 12.4102 17.0978 12.254 17.254L12.255 17.253Z" fill="#491C61"/>
<path d="M15.791 4.702L11.006 0.601999C10.7963 0.424651 10.5601 0.281247 10.306 0.176999C10.1797 0.126742 10.043 0.108152 9.90792 0.122851C9.77279 0.13755 9.64332 0.185092 9.53079 0.261328C9.41826 0.337564 9.32609 0.440178 9.26233 0.560218C9.19857 0.680258 9.16516 0.814077 9.165 0.949999V5C9.165 5.66304 9.42839 6.29893 9.89723 6.76777C10.3661 7.23661 11.002 7.5 11.665 7.5H15.831C16.0519 7.5 16.2638 7.41224 16.42 7.25602C16.5762 7.0998 16.664 6.88792 16.664 6.667V6.599C16.664 6.23819 16.5861 5.88165 16.4356 5.55373C16.2851 5.22581 16.0656 4.93426 15.792 4.699L15.791 4.702Z" fill="#491C61"/>
</g>
<defs>
<clipPath id="clip0_1_27">
<rect width="16.664" height="23.33" fill="white"/>
</clipPath>
</defs>
</svg>
