<svg width="25" height="22" viewBox="0 0 25 22" fill="none" xmlns="http://www.w3.org/2000/svg">
<g clip-path="url(#clip0_1_35)">
<path d="M22.991 19.7V21.889H1.095V19.7H2.19V12.3C1.13992 11.5989 0.398918 10.5216 0.119821 9.29022C-0.159276 8.05885 0.0448125 6.76732 0.689995 5.682L3.662 0.547C3.75853 0.381015 3.89682 0.243189 4.06313 0.147226C4.22945 0.0512623 4.41798 0.000504784 4.61 0H19.477C19.669 0.000504784 19.8575 0.0512623 20.0239 0.147226C20.1902 0.243189 20.3285 0.381015 20.425 0.547L23.383 5.673C24.0364 6.75731 24.2468 8.05167 23.9707 9.28713C23.6945 10.5226 22.9529 11.6041 21.9 12.307V19.707L22.991 19.7ZM5.243 2.189L2.579 6.8C2.32087 7.43936 2.31357 8.15258 2.55855 8.79709C2.80353 9.4416 3.28273 9.9699 3.90037 10.2764C4.51801 10.5829 5.22856 10.6449 5.88999 10.4502C6.55141 10.2555 7.11497 9.81826 7.468 9.226C7.55133 9.02516 7.69232 8.85353 7.87316 8.73279C8.05399 8.61204 8.26655 8.5476 8.484 8.5476C8.70144 8.5476 8.914 8.61204 9.09483 8.73279C9.27567 8.85353 9.41666 9.02516 9.5 9.226C9.7029 9.73436 10.0536 10.1702 10.5067 10.4773C10.9598 10.7843 11.4946 10.9484 12.042 10.9484C12.5894 10.9484 13.1241 10.7843 13.5773 10.4773C14.0304 10.1702 14.3811 9.73436 14.584 9.226C14.6673 9.02516 14.8083 8.85353 14.9892 8.73279C15.17 8.61204 15.3826 8.5476 15.6 8.5476C15.8174 8.5476 16.03 8.61204 16.2108 8.73279C16.3917 8.85353 16.5327 9.02516 16.616 9.226C16.76 9.57294 16.9738 9.88653 17.2442 10.1473C17.5146 10.408 17.8358 10.6103 18.1877 10.7415C18.5397 10.8727 18.9149 10.9301 19.29 10.9101C19.6651 10.89 20.032 10.793 20.368 10.625C20.704 10.457 21.0018 10.2217 21.2429 9.93363C21.4839 9.64558 21.6632 9.31099 21.7693 8.95069C21.8755 8.59039 21.9064 8.21208 21.8601 7.83932C21.8137 7.46657 21.6912 7.10734 21.5 6.784L18.842 2.189H5.244H5.243Z" fill="#491C61"/>
</g>
<defs>
<clipPath id="clip0_1_35">
<rect width="24.089" height="21.894" fill="white"/>
</clipPath>
</defs>
</svg>
