<svg width="12" height="20" viewBox="0 0 12 20" fill="none" xmlns="http://www.w3.org/2000/svg">
<g clip-path="url(#clip0_1_39)">
<path d="M10 0H2C1.46957 0 0.960859 0.210714 0.585786 0.585786C0.210714 0.960859 0 1.46957 0 2V18C0 18.5304 0.210714 19.0391 0.585786 19.4142C0.960859 19.7893 1.46957 20 2 20H10C10.5304 20 11.0391 19.7893 11.4142 19.4142C11.7893 19.0391 12 18.5304 12 18V2C12 1.46957 11.7893 0.960859 11.4142 0.585786C11.0391 0.210714 10.5304 0 10 0V0ZM6 19C5.70236 19.0294 5.40501 18.9413 5.17146 18.7544C4.93791 18.5676 4.78666 18.2968 4.75 18C4.78666 17.7032 4.93791 17.4324 5.17146 17.2456C5.40501 17.0587 5.70236 16.9706 6 17C6.29764 16.9706 6.59499 17.0587 6.82854 17.2456C7.06209 17.4324 7.21334 17.7032 7.25 18C7.21334 18.2968 7.06209 18.5676 6.82854 18.7544C6.59499 18.9413 6.29764 19.0294 6 19V19ZM10 16H2V2H10V16Z" fill="#491C61"/>
</g>
<defs>
<clipPath id="clip0_1_39">
<rect width="12" height="20" fill="white"/>
</clipPath>
</defs>
</svg>
