<svg width="24" height="24" viewBox="0 0 24 24" fill="none" xmlns="http://www.w3.org/2000/svg">
<g clip-path="url(#clip0_1_33)">
<path fill-rule="evenodd" clip-rule="evenodd" d="M21.681 18.471C21.7166 18.5139 21.7459 18.5618 21.768 18.613L23.289 22.113C23.3617 22.2706 23.3848 22.4466 23.3552 22.6177C23.3256 22.7887 23.2446 22.9467 23.1231 23.0707C23.0016 23.1947 22.8453 23.2788 22.6749 23.3119C22.5045 23.345 22.3281 23.3255 22.169 23.256L18.6 21.802C18.5443 21.7789 18.4924 21.7476 18.446 21.709L21.681 18.471ZM5.251 15.12L8.266 17.876L8.088 20.307C8.06196 20.6625 7.92486 21.0008 7.69606 21.2741C7.46726 21.5474 7.15835 21.7418 6.813 21.83C6.597 21.891 2.527 23.037 1.561 23.137C1.37648 23.1521 1.19117 23.1194 1.023 23.042L2.511 21.52C2.59515 21.4314 2.64106 21.3133 2.6388 21.1911C2.63653 21.069 2.58628 20.9526 2.49891 20.8672C2.41154 20.7818 2.29406 20.7342 2.17188 20.7347C2.0497 20.7353 1.93264 20.7839 1.846 20.87L0.346 22.398C0.251013 22.2155 0.209092 22.0101 0.225 21.805C0.325 20.839 1.472 16.769 1.532 16.553C1.6209 16.2069 1.81657 15.8977 2.09123 15.6692C2.36588 15.4407 2.70555 15.3045 3.062 15.28L5.251 15.12ZM6.813 21.83H6.822H6.803H6.813ZM17.624 21.212C17.5999 21.1944 17.5772 21.175 17.556 21.154L12.5 16.096C13.693 15.14 14.972 14.009 16.269 12.747L21.117 17.595C21.138 17.6162 21.1574 17.6389 21.175 17.663L17.625 21.213L17.624 21.212ZM5.869 14.42C7.59498 11.7845 9.60722 9.34801 11.869 7.155C15.243 3.781 18.574 1.255 20.603 0.373999C21.0744 0.145774 21.5877 0.0171 22.111 -0.00400069C22.4472 -0.0114486 22.7727 0.114782 23.016 0.346999C23.2483 0.590229 23.3746 0.915737 23.367 1.252C23.346 1.77531 23.2173 2.28867 22.989 2.76C22.109 4.788 19.582 8.119 16.208 11.494C14.0589 13.7038 11.6812 15.6792 9.115 17.387L5.869 14.42ZM1.538 16.555V16.565L1.543 16.546L1.538 16.555ZM7.272 10.87L0.172 3.77C0.0614108 3.6592 -0.000699997 3.50905 -0.000699997 3.3525C-0.000699997 3.19595 0.0614108 3.0458 0.172 2.935L2.9 0.211999C2.9548 0.157121 3.01988 0.113584 3.09152 0.0838793C3.16315 0.0541747 3.23995 0.0388851 3.3175 0.0388851C3.39505 0.0388851 3.47185 0.0541747 3.54348 0.0838793C3.61512 0.113584 3.6802 0.157121 3.735 0.211999L10.621 7.1C9.36 8.397 8.229 9.677 7.272 10.87Z" fill="#491C61"/>
</g>
<defs>
<clipPath id="clip0_1_33">
<rect width="23.368" height="23.33" fill="white"/>
</clipPath>
</defs>
</svg>
