<?xml version="1.0" standalone="no"?>
<!DOCTYPE svg PUBLIC "-//W3C//DTD SVG 20010904//EN"
 "http://www.w3.org/TR/2001/REC-SVG-20010904/DTD/svg10.dtd">
<svg version="1.0" xmlns="http://www.w3.org/2000/svg"
 width="243.000000pt" height="242.000000pt" viewBox="0 0 243.000000 242.000000"
 preserveAspectRatio="xMidYMid meet">

<g transform="translate(0.000000,242.000000) scale(0.100000,-0.100000)"
fill="#491C61" stroke="none">
<path d="M345 2411 c-24 -5 -31 -12 -33 -34 -3 -24 10 -42 82 -116 l86 -87
-24 -88 c-14 -48 -26 -89 -28 -90 -2 -2 -43 -13 -91 -25 l-88 -23 -89 86 c-53
51 -98 86 -110 86 -30 0 -43 -43 -38 -126 14 -228 228 -400 455 -366 l68 10
551 -550 552 -551 -2 -116 c-1 -111 0 -119 31 -183 38 -81 109 -155 184 -194
43 -22 71 -28 141 -32 169 -9 176 10 49 141 l-89 92 27 89 26 90 88 24 88 23
89 -85 c97 -94 135 -109 145 -61 3 14 7 35 10 48 8 41 -14 140 -45 203 -36 74
-110 146 -188 182 -52 24 -69 27 -181 28 l-123 1 -547 547 -547 547 0 117 c1
111 -1 120 -31 184 -59 126 -164 206 -298 228 -65 11 -75 11 -120 1z"/>
<path d="M1898 2396 c-98 -35 -197 -122 -245 -216 -26 -51 -28 -65 -30 -178
l-2 -122 -142 -148 c-78 -81 -146 -157 -152 -169 -8 -18 -4 -28 21 -60 47 -60
188 -193 204 -193 7 0 85 68 172 152 l159 152 121 1 c112 0 125 2 178 28 138
68 223 192 235 343 6 86 -4 124 -35 124 -9 0 -59 -39 -110 -86 l-93 -87 -92
24 -91 25 -27 89 -26 90 78 82 c95 100 112 129 84 149 -24 18 -157 18 -207 0z"/>
<path d="M762 1011 c-59 -55 -138 -130 -175 -168 l-68 -70 -52 10 c-62 13
-169 -3 -230 -34 -63 -32 -153 -125 -185 -188 -25 -51 -27 -66 -27 -171 0
-102 3 -120 24 -160 33 -62 121 -151 184 -186 49 -27 59 -29 162 -29 98 0 116
3 167 27 158 74 258 255 229 414 l-11 56 170 176 c94 97 170 181 170 187 0 13
-226 235 -240 235 -6 0 -59 -45 -118 -99z m-201 -489 c32 -34 59 -70 59 -78 0
-29 -31 -137 -51 -176 -20 -40 -41 -49 -172 -78 l-58 -13 -80 79 c-90 89 -87
74 -42 216 27 89 35 95 154 126 90 24 100 20 190 -76z"/>
</g>
</svg>
