<svg width="32" height="32" viewBox="0 0 32 32" fill="none" xmlns="http://www.w3.org/2000/svg">
<g clip-path="url(#clip0_4_2)">
<path d="M5.224 20.898V5.224H2.612V2.612H6.531C6.87737 2.612 7.20956 2.7496 7.45448 2.99452C7.6994 3.23944 7.837 3.57163 7.837 3.918V19.592H24.083L26.695 9.143H10.449V6.531H28.37C28.5686 6.53095 28.7646 6.5762 28.9431 6.66331C29.1216 6.75041 29.2778 6.87707 29.4 7.03366C29.5222 7.19024 29.607 7.37263 29.6481 7.56694C29.6891 7.76125 29.6854 7.96237 29.637 8.155L26.371 21.212C26.3003 21.4945 26.1372 21.7453 25.9077 21.9245C25.6781 22.1037 25.3952 22.201 25.104 22.201H6.531C6.18497 22.2013 5.85298 22.0642 5.60793 21.8199C5.36288 21.5756 5.22479 21.244 5.224 20.898ZM7.837 30.042C7.32039 30.042 6.81539 29.8888 6.38585 29.6018C5.95631 29.3148 5.62152 28.9068 5.42383 28.4296C5.22613 27.9523 5.1744 27.4271 5.27519 26.9204C5.37597 26.4137 5.62474 25.9483 5.99004 25.583C6.35533 25.2177 6.82075 24.969 7.32742 24.8682C7.8341 24.7674 8.35929 24.8191 8.83657 25.0168C9.31385 25.2145 9.72179 25.5493 10.0088 25.9788C10.2958 26.4084 10.449 26.9134 10.449 27.43C10.449 28.1227 10.1738 28.7871 9.68396 29.277C9.19412 29.7668 8.52974 30.042 7.837 30.042V30.042ZM23.511 30.042C22.9944 30.042 22.4894 29.8888 22.0599 29.6018C21.6303 29.3148 21.2955 28.9068 21.0978 28.4296C20.9001 27.9523 20.8484 27.4271 20.9492 26.9204C21.05 26.4137 21.2987 25.9483 21.664 25.583C22.0293 25.2177 22.4947 24.969 23.0014 24.8682C23.5081 24.7674 24.0333 24.8191 24.5106 25.0168C24.9878 25.2145 25.3958 25.5493 25.6828 25.9788C25.9698 26.4084 26.123 26.9134 26.123 27.43C26.123 28.1226 25.8479 28.7868 25.3583 29.2766C24.8687 29.7664 24.2046 30.0417 23.512 30.042H23.511Z" fill="#491C61"/>
</g>
<defs>
<clipPath id="clip0_4_2">
<rect width="31.348" height="31.348" fill="white"/>
</clipPath>
</defs>
</svg>
