<svg width="24" height="19" viewBox="0 0 24 19" fill="none" xmlns="http://www.w3.org/2000/svg">
<g clip-path="url(#clip0_1_41)">
<path d="M17.453 3.419H20.725L24 8.041V14.815H21.78C21.6825 15.7495 21.2423 16.6148 20.5443 17.2437C19.8463 17.8727 18.9401 18.2208 18.0005 18.2208C17.0609 18.2208 16.1547 17.8727 15.4567 17.2437C14.7587 16.6148 14.3185 15.7495 14.221 14.815H8.688C8.57923 15.7468 8.13621 16.6075 7.4411 17.2376C6.74599 17.8676 5.84598 18.2241 4.908 18.241C3.97002 18.2241 3.07 17.8676 2.37489 17.2376C1.67979 16.6075 1.23676 15.7468 1.128 14.815H-2.67918e-06V1.14C-0.00643885 0.844168 0.104875 0.55789 0.309465 0.344112C0.514054 0.130334 0.795169 0.00655861 1.091 0H16.362C16.6578 0.00655861 16.9389 0.130334 17.1435 0.344112C17.3481 0.55789 17.4594 0.844168 17.453 1.14V3.419ZM17.453 5.698V9.117H21.816V8.792L19.626 5.7L17.453 5.698Z" fill="#491C61"/>
</g>
<defs>
<clipPath id="clip0_1_41">
<rect width="23.998" height="18.241" fill="white"/>
</clipPath>
</defs>
</svg>
