<svg width="21" height="19" viewBox="0 0 21 19" fill="none" xmlns="http://www.w3.org/2000/svg">
<g clip-path="url(#clip0_1_37)">
<path d="M20.268 1.681C20.2675 1.23533 20.0902 0.808072 19.7751 0.492938C19.4599 0.177804 19.0327 0.000529296 18.587 0H1.681C1.23533 0.000529296 0.808072 0.177804 0.492938 0.492938C0.177804 0.808072 0.000529296 1.23533 0 1.681V5.558C0.0080778 5.90465 0.126088 6.23977 0.337 6.515C0.126288 6.78995 0.00828837 7.12469 0 7.471V11.348C0.0080778 11.6947 0.126088 12.0298 0.337 12.305C0.126088 12.5802 0.0080778 12.9153 0 13.262V17.139C0.000529296 17.5847 0.177804 18.0119 0.492938 18.3271C0.808072 18.6422 1.23533 18.8195 1.681 18.82H18.587C19.0327 18.8197 19.4602 18.6425 19.7754 18.3274C20.0905 18.0122 20.2677 17.5847 20.268 17.139V13.262C20.2599 12.9153 20.1419 12.5802 19.931 12.305C20.1419 12.0298 20.2599 11.6947 20.268 11.348V7.471C20.2599 7.12435 20.1419 6.78923 19.931 6.514C20.1419 6.23877 20.2599 5.90365 20.268 5.557V1.681ZM17.368 2.823L17.44 4.343L16.64 4.415H15.916L15.852 2.9L17.368 2.823ZM8.682 15.923H2.9V14.477H8.686L8.682 15.923ZM8.682 10.132H2.9V8.686H8.686L8.682 10.132ZM8.682 4.341H2.9V2.9H8.686L8.682 4.341ZM16.64 16H15.916L15.844 14.48L17.364 14.408L17.436 15.928L16.64 16ZM16.679 10.209H15.955L15.883 8.689L17.403 8.617L17.477 10.137L16.679 10.209Z" fill="#491C61"/>
</g>
<defs>
<clipPath id="clip0_1_37">
<rect width="20.268" height="18.82" fill="white"/>
</clipPath>
</defs>
</svg>
