<?xml version="1.0" standalone="no"?>
<!DOCTYPE svg PUBLIC "-//W3C//DTD SVG 20010904//EN"
 "http://www.w3.org/TR/2001/REC-SVG-20010904/DTD/svg10.dtd">
<svg version="1.0" xmlns="http://www.w3.org/2000/svg"
 width="27.000000pt" height="26.000000pt" viewBox="0 0 27.000000 26.000000"
 preserveAspectRatio="xMidYMid meet">

<g transform="translate(0.000000,26.000000) scale(0.100000,-0.100000)"
fill="#491C61" stroke="none">
<path d="M80 249 c-55 -22 -81 -75 -66 -135 10 -38 53 -74 89 -74 26 0 29 2
15 13 -24 19 -29 45 -10 50 15 4 15 5 -1 6 -29 2 -19 65 11 69 17 3 22 -2 23
-20 l0 -23 9 23 c13 30 55 30 63 0 4 -12 9 -19 12 -16 9 9 -19 71 -41 89 -25
22 -73 30 -104 18z m10 -18 c0 -25 -15 -41 -38 -41 l-25 0 23 25 c24 26 40 32
40 16z m50 -33 c0 -4 -12 -8 -26 -8 -14 0 -23 3 -21 8 2 4 7 16 11 27 7 20 8
20 22 1 8 -11 14 -23 14 -28z m35 26 c32 -21 32 -34 1 -34 -22 0 -36 16 -36
41 0 13 7 11 35 -7z m-97 -76 c-2 -28 -7 -33 -28 -33 -16 0 -26 6 -28 18 -6
30 6 47 33 47 24 0 26 -3 23 -32z m7 -69 c10 -31 0 -33 -31 -5 l-29 25 27 1
c18 0 29 -6 33 -21z"/>
<path d="M160 115 c0 -8 8 -11 20 -8 11 3 20 7 20 8 0 1 -9 5 -20 8 -12 3 -20
0 -20 -8z"/>
<path d="M221 74 c0 -11 3 -14 6 -6 3 7 2 16 -1 19 -3 4 -6 -2 -5 -13z"/>
<path d="M206 47 c3 -10 9 -15 12 -12 3 3 0 11 -7 18 -10 9 -11 8 -5 -6z"/>
</g>
</svg>
