<svg width="24" height="24" viewBox="0 0 24 24" fill="none" xmlns="http://www.w3.org/2000/svg">
<g clip-path="url(#clip0_1_43)">
<path d="M7.161 8.611H8.461C8.59739 8.02491 8.7889 7.45302 9.03299 6.903C8.28637 7.31949 7.64713 7.9043 7.16601 8.611H7.161ZM7.161 14.72C7.64213 15.4267 8.28138 16.0115 9.02801 16.428C8.78389 15.878 8.59237 15.3061 8.456 14.72H7.161ZM16.173 8.611C15.6919 7.9043 15.0526 7.31949 14.306 6.903C14.5501 7.45301 14.7416 8.0249 14.878 8.611H16.173ZM12.69 7.384C12.251 6.507 11.811 6.223 11.667 6.223C11.523 6.223 11.083 6.507 10.644 7.384C10.4513 7.77772 10.2957 8.18849 10.179 8.611H13.155C13.0377 8.18842 12.8813 7.77765 12.688 7.384H12.69ZM10.644 15.947C11.083 16.824 11.523 17.108 11.667 17.108C11.811 17.108 12.251 16.824 12.69 15.947C12.8827 15.5533 13.0383 15.1425 13.155 14.72H10.179C10.2951 15.1424 10.45 15.5532 10.642 15.947H10.644ZM8.113 11.666C8.113 11.191 8.13701 10.727 8.18101 10.278H6.40101C6.16347 11.1884 6.16347 12.1446 6.40101 13.055H8.17901C8.13501 12.605 8.111 12.14 8.111 11.665L8.113 11.666ZM15.221 11.666C15.221 12.141 15.197 12.605 15.153 13.054H16.931C17.1685 12.1436 17.1685 11.1874 16.931 10.277H15.153C15.196 10.726 15.219 11.19 15.219 11.665L15.221 11.666Z" fill="#491C61"/>
<path d="M11.665 0C9.35789 0 7.10258 0.68414 5.18428 1.96591C3.26598 3.24767 1.77085 5.0695 0.88795 7.201C0.00505424 9.3325 -0.225952 11.6779 0.224145 13.9407C0.674242 16.2035 1.78523 18.282 3.4166 19.9134C5.04798 21.5448 7.12649 22.6558 9.38928 23.1059C11.6521 23.556 13.9975 23.325 16.129 22.4421C18.2605 21.5592 20.0823 20.064 21.3641 18.1457C22.6459 16.2274 23.33 13.9721 23.33 11.665C23.33 8.57125 22.101 5.60421 19.9134 3.4166C17.7258 1.22899 14.7588 0 11.665 0ZM11.665 18.773C10.2592 18.773 8.88492 18.3561 7.71601 17.5751C6.54711 16.794 5.63606 15.6839 5.09807 14.3851C4.56008 13.0863 4.41932 11.6571 4.69358 10.2783C4.96785 8.89948 5.64482 7.63296 6.63889 6.63889C7.63296 5.64481 8.89949 4.96784 10.2783 4.69358C11.6571 4.41931 13.0863 4.56008 14.3851 5.09806C15.6839 5.63605 16.7941 6.5471 17.5751 7.71601C18.3561 8.88491 18.773 10.2592 18.773 11.665C18.773 13.5502 18.0241 15.3581 16.6911 16.6911C15.3581 18.0241 13.5502 18.773 11.665 18.773Z" fill="#491C61"/>
<path d="M9.85501 10.277C9.75086 11.1997 9.75086 12.1313 9.85501 13.054H13.475C13.5792 12.1313 13.5792 11.1997 13.475 10.277H9.85501ZM14.303 16.428C15.0496 16.0115 15.6889 15.4267 16.17 14.72H14.87C14.7356 15.3059 14.5461 15.8778 14.304 16.428H14.303Z" fill="#491C61"/>
</g>
<defs>
<clipPath id="clip0_1_43">
<rect width="23.33" height="23.33" fill="white"/>
</clipPath>
</defs>
</svg>
