<?xml version="1.0" standalone="no"?>
<!DOCTYPE svg PUBLIC "-//W3C//DTD SVG 20010904//EN"
 "http://www.w3.org/TR/2001/REC-SVG-20010904/DTD/svg10.dtd">
<svg version="1.0" xmlns="http://www.w3.org/2000/svg"
 width="30.000000pt" height="31.000000pt" viewBox="0 0 30.000000 31.000000"
 preserveAspectRatio="xMidYMid meet">

<g transform="translate(0.000000,31.000000) scale(0.100000,-0.100000)"
fill="#491C61" stroke="none">
<path d="M111 251 c-9 -15 -7 -20 9 -24 16 -4 20 0 20 19 0 29 -15 31 -29 5z"/>
<path d="M160 246 c0 -19 4 -23 20 -19 16 4 18 9 9 24 -14 26 -29 24 -29 -5z"/>
<path d="M80 250 c-9 -6 -10 -10 -3 -10 6 0 15 5 18 10 8 12 4 12 -15 0z"/>
<path d="M207 249 c7 -7 15 -10 18 -7 3 3 -2 9 -12 12 -14 6 -15 5 -6 -5z"/>
<path d="M42 205 c-16 -36 -15 -45 7 -45 12 0 21 9 25 25 12 47 -13 61 -32 20z"/>
<path d="M220 211 c0 -33 11 -51 31 -51 22 0 23 9 7 45 -13 29 -38 33 -38 6z"/>
<path d="M178 213 c-11 -3 -18 -14 -18 -29 0 -19 5 -24 25 -24 20 0 25 5 25
24 0 28 -7 34 -32 29z"/>
<path d="M90 185 c0 -20 5 -25 25 -25 20 0 25 5 25 25 0 20 -5 25 -25 25 -20
0 -25 -5 -25 -25z"/>
<path d="M30 130 c0 -16 23 -60 31 -60 14 0 21 21 15 46 -6 23 -46 36 -46 14z"/>
<path d="M90 115 c0 -20 5 -25 25 -25 20 0 25 5 25 25 0 20 -5 25 -25 25 -20
0 -25 -5 -25 -25z"/>
<path d="M160 115 c0 -20 5 -25 25 -25 20 0 25 5 25 25 0 20 -5 25 -25 25 -20
0 -25 -5 -25 -25z"/>
<path d="M226 115 c-12 -47 13 -61 32 -20 16 36 15 45 -7 45 -12 0 -21 -9 -25
-25z"/>
<path d="M113 73 c-9 -3 -10 -10 -3 -24 15 -27 30 -24 30 6 0 25 -4 28 -27 18z"/>
<path d="M160 54 c0 -29 15 -31 29 -5 9 15 7 20 -9 24 -16 4 -20 0 -20 -19z"/>
<path d="M70 56 c0 -2 7 -7 16 -10 8 -3 12 -2 9 4 -6 10 -25 14 -25 6z"/>
<path d="M205 50 c-3 -6 1 -7 9 -4 18 7 21 14 7 14 -6 0 -13 -4 -16 -10z"/>
</g>
</svg>
